<svg id="visual" viewBox="0 0 900 600" width="900" height="600" xmlns="http://www.w3.org/2000/svg" xmlns:xlink="http://www.w3.org/1999/xlink" version="1.1"><rect x="0" y="0" width="900" height="600" fill="#ffffff"></rect><path d="M0 458L18.8 457.8C37.7 457.7 75.3 457.3 112.8 457.2C150.3 457 187.7 457 225.2 457.7C262.7 458.3 300.3 459.7 337.8 452.3C375.3 445 412.7 429 450.2 422.7C487.7 416.3 525.3 419.7 562.8 429.3C600.3 439 637.7 455 675.2 457C712.7 459 750.3 447 787.8 438.3C825.3 429.7 862.7 424.3 881.3 421.7L900 419L900 601L881.3 601C862.7 601 825.3 601 787.8 601C750.3 601 712.7 601 675.2 601C637.7 601 600.3 601 562.8 601C525.3 601 487.7 601 450.2 601C412.7 601 375.3 601 337.8 601C300.3 601 262.7 601 225.2 601C187.7 601 150.3 601 112.8 601C75.3 601 37.7 601 18.8 601L0 601Z" fill="#e5e9ff"></path><path d="M0 472L18.8 480.2C37.7 488.3 75.3 504.7 112.8 510.5C150.3 516.3 187.7 511.7 225.2 506.7C262.7 501.7 300.3 496.3 337.8 490.8C375.3 485.3 412.7 479.7 450.2 482.8C487.7 486 525.3 498 562.8 502.3C600.3 506.7 637.7 503.3 675.2 496C712.7 488.7 750.3 477.3 787.8 477.7C825.3 478 862.7 490 881.3 496L900 502L900 601L881.3 601C862.7 601 825.3 601 787.8 601C750.3 601 712.7 601 675.2 601C637.7 601 600.3 601 562.8 601C525.3 601 487.7 601 450.2 601C412.7 601 375.3 601 337.8 601C300.3 601 262.7 601 225.2 601C187.7 601 150.3 601 112.8 601C75.3 601 37.7 601 18.8 601L0 601Z" fill="#7c7e97"></path><path d="M0 549L18.8 548.5C37.7 548 75.3 547 112.8 541.2C150.3 535.3 187.7 524.7 225.2 524C262.7 523.3 300.3 532.7 337.8 532C375.3 531.3 412.7 520.7 450.2 517C487.7 513.3 525.3 516.7 562.8 524.8C600.3 533 637.7 546 675.2 553.8C712.7 561.7 750.3 564.3 787.8 559C825.3 553.7 862.7 540.3 881.3 533.7L900 527L900 601L881.3 601C862.7 601 825.3 601 787.8 601C750.3 601 712.7 601 675.2 601C637.7 601 600.3 601 562.8 601C525.3 601 487.7 601 450.2 601C412.7 601 375.3 601 337.8 601C300.3 601 262.7 601 225.2 601C187.7 601 150.3 601 112.8 601C75.3 601 37.7 601 18.8 601L0 601Z" fill="#22223b"></path></svg>